<?xml version="1.0" encoding="UTF-8"?>
<!DOCTYPE svg PUBLIC "-//W3C//DTD SVG 1.1//EN" "http://www.w3.org/Graphics/SVG/1.1/DTD/svg11.dtd">
<svg version="1.1" xmlns="http://www.w3.org/2000/svg" xmlns:xlink="http://www.w3.org/1999/xlink" x="0" y="0" width="128" height="128" viewBox="0, 0, 128, 128">
  <defs>
    <clipPath id="Clip_1">
      <path d="M77.186,81.192 L104.814,81.192 L104.814,100.808 L77.186,100.808 z"/>
    </clipPath>
  </defs>
  <g id="Layer_1">
    <path d="M0,0 L128,0 L128,128 L0,128 z" fill="#1E1E1E"/>
    <path d="M63.381,24.103 C41.632,24.103 24,41.735 24,63.485 C24,85.234 41.632,102.866 63.381,102.866 C85.131,102.866 102.763,85.234 102.763,63.485 C102.763,41.735 85.131,24.103 63.381,24.103 z M63.381,26.466 C68.38,26.466 73.227,27.444 77.79,29.374 C79.983,30.302 82.098,31.45 84.077,32.787 C86.038,34.111 87.882,35.632 89.557,37.309 C91.233,38.984 92.755,40.828 94.079,42.789 C95.416,44.768 96.564,46.883 97.492,49.076 C99.421,53.638 100.4,58.486 100.4,63.485 C100.4,68.483 99.421,73.331 97.492,77.893 C96.564,80.086 95.416,82.201 94.079,84.18 C92.755,86.141 91.233,87.985 89.557,89.66 C87.882,91.336 86.038,92.858 84.077,94.182 C82.098,95.519 79.983,96.667 77.79,97.595 C73.227,99.525 68.38,100.503 63.381,100.503 C58.383,100.503 53.535,99.525 48.973,97.595 C46.78,96.667 44.664,95.519 42.685,94.182 C40.725,92.858 38.881,91.336 37.205,89.66 C35.53,87.985 34.008,86.141 32.684,84.18 C31.347,82.201 30.198,80.086 29.271,77.893 C27.341,73.331 26.363,68.483 26.363,63.485 C26.363,58.486 27.341,53.638 29.271,49.076 C30.198,46.883 31.347,44.768 32.684,42.789 C34.008,40.828 35.53,38.984 37.205,37.309 C38.881,35.632 40.725,34.111 42.685,32.787 C44.664,31.45 46.78,30.302 48.973,29.374 C53.535,27.444 58.383,26.466 63.381,26.466 z" fill="#FFFFFF"/>
    <path d="M93.302,48.022 C93.445,49.082 93.526,50.221 93.526,51.446 C93.526,54.824 92.892,58.623 90.986,63.375 L80.788,92.785 C90.715,87.012 97.391,76.285 97.391,63.999 C97.391,58.208 95.908,52.765 93.302,48.022 z M64.586,66.912 L54.566,95.947 C57.559,96.826 60.722,97.304 64,97.304 C67.888,97.304 71.619,96.635 75.089,95.416 C75,95.273 74.917,95.122 74.85,94.957 L64.586,66.912 z M86.542,62.319 C86.542,58.202 85.059,55.352 83.789,53.134 C82.096,50.39 80.509,48.068 80.509,45.324 C80.509,42.262 82.837,39.413 86.116,39.413 C86.265,39.413 86.405,39.43 86.549,39.44 C80.608,34.011 72.693,30.696 64,30.696 C52.334,30.696 42.071,36.666 36.1,45.706 C36.884,45.731 37.623,45.747 38.249,45.747 C41.741,45.747 47.149,45.324 47.149,45.324 C48.948,45.218 49.161,47.856 47.363,48.068 C47.363,48.068 45.553,48.279 43.541,48.384 L55.7,84.459 L63.009,62.601 L57.807,48.384 C56.008,48.279 54.305,48.068 54.305,48.068 C52.504,47.962 52.715,45.218 54.516,45.324 C54.516,45.324 60.03,45.747 63.31,45.747 C66.802,45.747 72.211,45.324 72.211,45.324 C74.011,45.218 74.223,47.856 72.424,48.068 C72.424,48.068 70.612,48.279 68.602,48.384 L80.67,84.184 L84.114,73.298 C85.645,68.54 86.542,65.169 86.542,62.319 z M30.608,63.999 C30.608,77.18 38.289,88.573 49.428,93.971 L33.5,50.445 C31.647,54.587 30.608,59.171 30.608,63.999 z" fill="#FFFFFF"/>
    <path d="M91,69.5 L91,69.5 C102.874,69.5 112.5,79.126 112.5,91 L112.5,91 C112.5,102.874 102.874,112.5 91,112.5 L91,112.5 C79.126,112.5 69.5,102.874 69.5,91 L69.5,91 C69.5,79.126 79.126,69.5 91,69.5 z" fill="#FFFFFF"/>
    <g>
      <path d="M91,69.5 L91,69.5 C102.874,69.5 112.5,79.126 112.5,91 L112.5,91 C112.5,102.874 102.874,112.5 91,112.5 L91,112.5 C79.126,112.5 69.5,102.874 69.5,91 L69.5,91 C69.5,79.126 79.126,69.5 91,69.5 z" fill="#FFFFFF"/>
      <path d="M91,69.5 L91,69.5 C102.874,69.5 112.5,79.126 112.5,91 L112.5,91 C112.5,102.874 102.874,112.5 91,112.5 L91,112.5 C79.126,112.5 69.5,102.874 69.5,91 L69.5,91 C69.5,79.126 79.126,69.5 91,69.5 z" fill-opacity="0" stroke="#1E1E1E" stroke-width="3"/>
    </g>
    <g clip-path="url(#Clip_1)">
      <path d="M85.079,81.192 L81.131,81.192 L81.131,85.128 L85.079,85.128 L85.079,81.192 z" fill="#FFD800"/>
      <path d="M100.868,81.192 L96.92,81.192 L96.92,85.128 L100.868,85.128 L100.868,81.192 z" fill="#FFD800"/>
      <path d="M89.026,85.128 L81.131,85.128 L81.131,89.065 L89.026,89.065 L89.026,85.128 z" fill="#FFAF00"/>
      <path d="M100.869,85.128 L92.975,85.128 L92.975,89.065 L100.869,89.065 L100.869,85.128 z" fill="#FFAF00"/>
      <path d="M100.866,89.063 L81.131,89.063 L81.131,92.999 L100.866,92.999 L100.866,89.063 z" fill="#FF8205"/>
      <path d="M85.079,92.999 L81.131,92.999 L81.131,96.936 L85.079,96.936 L85.079,92.999 z" fill="#FA500F"/>
      <path d="M92.975,92.999 L89.027,92.999 L89.027,96.936 L92.975,96.936 L92.975,92.999 z" fill="#FA500F"/>
      <path d="M100.868,92.999 L96.92,92.999 L96.92,96.936 L100.868,96.936 L100.868,92.999 z" fill="#FA500F"/>
      <path d="M89.026,96.934 L77.185,96.934 L77.185,100.871 L89.026,100.871 L89.026,96.934 z" fill="#E10500"/>
      <path d="M104.817,96.934 L92.975,96.934 L92.975,100.871 L104.817,100.871 L104.817,96.934 z" fill="#E10500"/>
    </g>
  </g>
</svg>
