<?xml version="1.0" encoding="UTF-8"?>
<!DOCTYPE svg PUBLIC "-//W3C//DTD SVG 1.1//EN" "http://www.w3.org/Graphics/SVG/1.1/DTD/svg11.dtd">
<svg version="1.1" xmlns="http://www.w3.org/2000/svg" xmlns:xlink="http://www.w3.org/1999/xlink" x="0" y="0" width="128" height="128" viewBox="0, 0, 128, 128">
  <defs>
    <clipPath id="Clip_1">
      <path d="M77.186,81.192 L104.814,81.192 L104.814,100.808 L77.186,100.808 z"/>
    </clipPath>
  </defs>
  <g id="Layer_2">
    <path d="M0,0 L128,0 L128,128 L0,128 z" fill="#FFFAEA"/>
    <path d="M7.779,-0 L7.779,128" fill-opacity="0" stroke="#FFF0C3" stroke-width="1"/>
    <path d="M0,9.703 L128,9.703" fill-opacity="0" stroke="#FFF0C3" stroke-width="1"/>
    <path d="M0,37.615 L128,37.615" fill-opacity="0" stroke="#FFF0C3" stroke-width="1"/>
    <path d="M0,64 L128,64" fill-opacity="0" stroke="#FFF0C3" stroke-width="1"/>
    <path d="M0,91 L128,91" fill-opacity="0" stroke="#FFF0C3" stroke-width="1"/>
    <path d="M0,118.606 L128,118.606" fill-opacity="0" stroke="#FFF0C3" stroke-width="1"/>
    <path d="M34.318,128 L34.318,0" fill-opacity="0" stroke="#FFF0C3" stroke-width="1"/>
    <path d="M61.772,128 L61.772,-0" fill-opacity="0" stroke="#FFF0C3" stroke-width="1"/>
    <path d="M88.312,-0 L88.312,128" fill-opacity="0" stroke="#FFF0C3" stroke-width="1"/>
    <path d="M115.766,0 L115.766,128" fill-opacity="0" stroke="#FFF0C3" stroke-width="1"/>
  </g>
  <g id="Layer_1">
    <path d="M64,24.618 C42.25,24.618 24.618,42.25 24.618,64.001 C24.618,85.749 42.25,103.382 64,103.382 C85.749,103.382 103.382,85.749 103.382,64.001 C103.382,42.25 85.749,24.618 64,24.618 z M64,26.982 C68.998,26.982 73.845,27.959 78.409,29.889 C80.602,30.817 82.716,31.965 84.696,33.302 C86.657,34.626 88.501,36.147 90.175,37.825 C91.852,39.5 93.373,41.343 94.698,43.305 C96.035,45.284 97.183,47.398 98.11,49.591 C100.039,54.153 101.019,59.001 101.019,64.001 C101.019,68.998 100.039,73.846 98.11,78.409 C97.183,80.602 96.035,82.716 94.698,84.696 C93.373,86.657 91.852,88.501 90.175,90.175 C88.501,91.852 86.657,93.373 84.696,94.698 C82.716,96.035 80.602,97.183 78.409,98.11 C73.845,100.04 68.998,101.019 64,101.019 C59.001,101.019 54.153,100.04 49.591,98.11 C47.398,97.183 45.283,96.035 43.304,94.698 C41.343,93.373 39.5,91.852 37.824,90.175 C36.148,88.501 34.626,86.657 33.302,84.696 C31.965,82.716 30.816,80.602 29.889,78.409 C27.959,73.846 26.982,68.998 26.982,64.001 C26.982,59.001 27.959,54.153 29.889,49.591 C30.816,47.398 31.965,45.284 33.302,43.305 C34.626,41.343 36.148,39.5 37.824,37.825 C39.5,36.147 41.343,34.626 43.304,33.302 C45.283,31.965 47.398,30.817 49.591,29.889 C54.153,27.959 59.001,26.982 64,26.982 z" fill="#FFAF01"/>
    <path d="M93.302,48.022 C93.446,49.082 93.526,50.221 93.526,51.446 C93.526,54.824 92.893,58.623 90.986,63.375 L80.788,92.785 C90.715,87.012 97.392,76.285 97.392,63.999 C97.392,58.208 95.909,52.765 93.302,48.022 z M64.587,66.912 L54.566,95.947 C57.559,96.826 60.722,97.304 64,97.304 C67.888,97.304 71.619,96.635 75.09,95.416 C75,95.273 74.917,95.122 74.851,94.957 L64.587,66.912 z M86.542,62.319 C86.542,58.202 85.06,55.352 83.789,53.134 C82.096,50.39 80.509,48.068 80.509,45.324 C80.509,42.262 82.838,39.413 86.117,39.413 C86.266,39.413 86.406,39.43 86.549,39.44 C80.608,34.011 72.693,30.696 64,30.696 C52.334,30.696 42.071,36.666 36.1,45.706 C36.884,45.731 37.624,45.747 38.25,45.747 C41.742,45.747 47.149,45.324 47.149,45.324 C48.948,45.218 49.161,47.856 47.363,48.068 C47.363,48.068 45.554,48.279 43.542,48.384 L55.701,84.459 L63.009,62.601 L57.807,48.384 C56.008,48.279 54.306,48.068 54.306,48.068 C52.505,47.962 52.715,45.218 54.516,45.324 C54.516,45.324 60.03,45.747 63.311,45.747 C66.802,45.747 72.212,45.324 72.212,45.324 C74.011,45.218 74.224,47.856 72.424,48.068 C72.424,48.068 70.613,48.279 68.603,48.384 L80.671,84.184 L84.115,73.298 C85.646,68.54 86.542,65.169 86.542,62.319 z M30.608,63.999 C30.608,77.18 38.29,88.573 49.429,93.971 L33.5,50.445 C31.647,54.587 30.608,59.171 30.608,63.999 z" fill="#FFAF01"/>
    <path d="M91,69.5 L91,69.5 C102.874,69.5 112.5,79.126 112.5,91 L112.5,91 C112.5,102.874 102.874,112.5 91,112.5 L91,112.5 C79.126,112.5 69.5,102.874 69.5,91 L69.5,91 C69.5,79.126 79.126,69.5 91,69.5 z" fill="#FFFFFF"/>
    <g>
      <path d="M91,69.5 L91,69.5 C102.874,69.5 112.5,79.126 112.5,91 L112.5,91 C112.5,102.874 102.874,112.5 91,112.5 L91,112.5 C79.126,112.5 69.5,102.874 69.5,91 L69.5,91 C69.5,79.126 79.126,69.5 91,69.5 z" fill="#FFFFFF"/>
      <g>
        <path d="M91,69.5 L91,69.5 C102.874,69.5 112.5,79.126 112.5,91 L112.5,91 C112.5,102.874 102.874,112.5 91,112.5 L91,112.5 C79.126,112.5 69.5,102.874 69.5,91 L69.5,91 C69.5,79.126 79.126,69.5 91,69.5 z" fill="#FFFAEA"/>
        <path d="M91,69.5 L91,69.5 C102.874,69.5 112.5,79.126 112.5,91 L112.5,91 C112.5,102.874 102.874,112.5 91,112.5 L91,112.5 C79.126,112.5 69.5,102.874 69.5,91 L69.5,91 C69.5,79.126 79.126,69.5 91,69.5 z" fill-opacity="0" stroke="#FA500E" stroke-width="3"/>
      </g>
    </g>
    <g clip-path="url(#Clip_1)">
      <path d="M85.079,81.192 L81.131,81.192 L81.131,85.128 L85.079,85.128 L85.079,81.192 z" fill="#FFD800"/>
      <path d="M100.868,81.192 L96.92,81.192 L96.92,85.128 L100.868,85.128 L100.868,81.192 z" fill="#FFD800"/>
      <path d="M89.026,85.128 L81.131,85.128 L81.131,89.065 L89.026,89.065 L89.026,85.128 z" fill="#FFAF00"/>
      <path d="M100.869,85.128 L92.975,85.128 L92.975,89.065 L100.869,89.065 L100.869,85.128 z" fill="#FFAF00"/>
      <path d="M100.866,89.063 L81.131,89.063 L81.131,92.999 L100.866,92.999 L100.866,89.063 z" fill="#FF8205"/>
      <path d="M85.079,92.999 L81.131,92.999 L81.131,96.936 L85.079,96.936 L85.079,92.999 z" fill="#FA500F"/>
      <path d="M92.975,92.999 L89.027,92.999 L89.027,96.936 L92.975,96.936 L92.975,92.999 z" fill="#FA500F"/>
      <path d="M100.868,92.999 L96.92,92.999 L96.92,96.936 L100.868,96.936 L100.868,92.999 z" fill="#FA500F"/>
      <path d="M89.026,96.934 L77.185,96.934 L77.185,100.871 L89.026,100.871 L89.026,96.934 z" fill="#E10500"/>
      <path d="M104.817,96.934 L92.975,96.934 L92.975,100.871 L104.817,100.871 L104.817,96.934 z" fill="#E10500"/>
    </g>
  </g>
</svg>
